<svg width="763" height="86" viewBox="0 0 763 86" fill="none" xmlns="http://www.w3.org/2000/svg">
<path d="M2.35938 2.60938C9.21354 2.90104 17.8359 3.04688 28.2266 3.04688L49.3906 60.3594H49.6641L71.7031 3.04688H77.9922C82.513 3.04688 88.8932 2.90104 97.1328 2.60938C97.2786 3.19271 97.3516 3.59375 97.3516 3.8125C97.3516 4.06771 97.2786 4.52344 97.1328 5.17969C95.8203 5.28906 94.763 5.39844 93.9609 5.50781C93.1589 5.61719 92.0833 5.79948 90.7344 6.05469C89.4219 6.3099 88.3646 6.61979 87.5625 6.98438C86.7604 7.3125 86.0495 7.78646 85.4297 8.40625C84.8099 8.98958 84.4818 9.66406 84.4453 10.4297C84.0807 18.9974 83.8984 29.1875 83.8984 41C83.8984 52.9948 84.1354 64.4974 84.6094 75.5078C84.6458 76.4557 85.0651 77.276 85.8672 77.9688C86.6693 78.625 87.8177 79.1354 89.3125 79.5C90.8438 79.8646 92.1198 80.138 93.1406 80.3203C94.1979 80.4661 95.5651 80.612 97.2422 80.7578C97.388 81.3411 97.4609 81.8333 97.4609 82.2344C97.4609 82.526 97.388 82.8906 97.2422 83.3281C91.0807 83.1094 84.737 83 78.2109 83C71.6484 83 65.3047 83.1094 59.1797 83.3281C59.0339 82.8906 58.9609 82.526 58.9609 82.2344C58.9609 81.6146 59.0339 81.1224 59.1797 80.7578C60.8568 80.612 62.2057 80.4661 63.2266 80.3203C64.2839 80.138 65.5599 79.8646 67.0547 79.5C68.5859 79.1354 69.7526 78.625 70.5547 77.9688C71.3568 77.276 71.776 76.4557 71.8125 75.5078C72.1771 64.1328 72.3594 53.9792 72.3594 45.0469C72.3594 36.4792 72.1771 26.7266 71.8125 15.7891H71.375L46.3828 81.6328H45.8359L19.2031 14.4766H18.6016C18.3099 23.3359 18.1641 33.526 18.1641 45.0469C18.1641 53.5052 18.3464 63.3854 18.7109 74.6875C18.7839 78.0052 22.8125 80.0286 30.7969 80.7578C30.9792 81.3776 31.0703 81.8698 31.0703 82.2344C31.0703 82.599 30.9792 82.9635 30.7969 83.3281C25 83.1094 19.8229 83 15.2656 83C12.349 83 7.46354 83.1094 0.609375 83.3281C0.427083 82.9635 0.335938 82.599 0.335938 82.2344C0.335938 81.6146 0.427083 81.1224 0.609375 80.7578C8.66667 79.9922 12.6953 77.9688 12.6953 74.6875C13.1328 63.3125 13.3516 52.0833 13.3516 41C13.3516 33.0156 13.2422 24.5391 13.0234 15.5703C12.987 14.0391 12.8958 12.763 12.75 11.7422C12.6042 10.6849 12.3307 9.77344 11.9297 9.00781C11.5286 8.24219 11.1094 7.64062 10.6719 7.20312C10.2344 6.76562 9.5599 6.38281 8.64844 6.05469C7.73698 5.6901 6.84375 5.4349 5.96875 5.28906C5.13021 5.10677 3.92708 4.90625 2.35938 4.6875C2.21354 4.39583 2.14062 4.06771 2.14062 3.70312C2.14062 3.26562 2.21354 2.90104 2.35938 2.60938ZM150.453 0.75C153.26 0.75 156.214 1.04167 159.312 1.625C162.448 2.20833 165.529 3.17448 168.555 4.52344C171.617 5.83594 174.534 7.58594 177.305 9.77344C180.112 11.9245 182.573 14.5677 184.688 17.7031C186.802 20.8385 188.479 24.5026 189.719 28.6953C190.995 32.888 191.633 37.7005 191.633 43.1328C191.633 48.6016 191.013 53.4505 189.773 57.6797C188.534 61.8724 186.857 65.5365 184.742 68.6719C182.628 71.7708 180.167 74.3958 177.359 76.5469C174.589 78.6615 171.654 80.375 168.555 81.6875C165.492 82.9635 162.357 83.875 159.148 84.4219C155.94 85.0052 152.878 85.2969 149.961 85.2969C147.19 85.2969 144.237 85.0052 141.102 84.4219C138.003 83.875 134.922 82.9635 131.859 81.6875C128.797 80.375 125.862 78.6615 123.055 76.5469C120.284 74.3958 117.823 71.7708 115.672 68.6719C113.557 65.5365 111.862 61.8724 110.586 57.6797C109.346 53.4505 108.727 48.6016 108.727 43.1328C108.727 37.5182 109.383 32.5781 110.695 28.3125C112.008 24.0104 113.74 20.2917 115.891 17.1562C118.078 14.0208 120.594 11.4141 123.438 9.33594C126.318 7.22135 129.289 5.52604 132.352 4.25C135.451 2.97396 138.549 2.08073 141.648 1.57031C144.784 1.02344 147.719 0.75 150.453 0.75ZM150.18 4.6875C146.753 4.6875 143.708 5.2526 141.047 6.38281C138.385 7.51302 136.052 9.04427 134.047 10.9766C132.042 12.8724 130.346 15.0964 128.961 17.6484C127.576 20.1641 126.445 22.8438 125.57 25.6875C124.732 28.5312 124.112 31.4479 123.711 34.4375C123.346 37.4271 123.164 40.3255 123.164 43.1328C123.164 45.8307 123.346 48.638 123.711 51.5547C124.076 54.4714 124.677 57.3516 125.516 60.1953C126.354 63.0026 127.448 65.6823 128.797 68.2344C130.182 70.7865 131.878 73.0286 133.883 74.9609C135.888 76.8932 138.221 78.4427 140.883 79.6094C143.581 80.7396 146.68 81.3047 150.18 81.3047C153.607 81.3047 156.651 80.7578 159.312 79.6641C161.974 78.5339 164.307 77.0208 166.312 75.125C168.318 73.1927 169.995 70.9688 171.344 68.4531C172.729 65.901 173.841 63.2214 174.68 60.4141C175.555 57.5703 176.174 54.6719 176.539 51.7188C176.94 48.7656 177.141 45.9036 177.141 43.1328C177.141 40.3255 176.94 37.4271 176.539 34.4375C176.174 31.4479 175.555 28.5312 174.68 25.6875C173.841 22.8438 172.729 20.1641 171.344 17.6484C169.958 15.0964 168.263 12.8724 166.258 10.9766C164.253 9.04427 161.919 7.51302 159.258 6.38281C156.596 5.2526 153.57 4.6875 150.18 4.6875ZM203.172 2.60938C211.339 2.90104 217.865 3.04688 222.75 3.04688C231.865 2.75521 237.461 2.60938 239.539 2.60938C242.93 2.60938 246.12 2.75521 249.109 3.04688C252.099 3.33854 255.18 3.88542 258.352 4.6875C261.56 5.45312 264.458 6.47396 267.047 7.75C269.635 8.98958 272.115 10.6484 274.484 12.7266C276.854 14.8047 278.841 17.2109 280.445 19.9453C282.049 22.6797 283.326 25.9792 284.273 29.8438C285.221 33.6719 285.695 37.9193 285.695 42.5859C285.404 47.0703 284.62 51.1901 283.344 54.9453C282.104 58.7005 280.5 61.9453 278.531 64.6797C276.599 67.4141 274.302 69.8568 271.641 72.0078C268.979 74.1589 266.19 75.9089 263.273 77.2578C260.393 78.6068 257.258 79.7188 253.867 80.5938C250.513 81.4688 247.232 82.0885 244.023 82.4531C240.852 82.8177 237.57 83 234.18 83C220.508 83 210.135 83.1094 203.062 83.3281C202.917 82.8906 202.844 82.526 202.844 82.2344C202.844 81.9792 202.917 81.487 203.062 80.7578C204.156 80.6484 205.031 80.5573 205.688 80.4844C206.344 80.4115 207.237 80.2839 208.367 80.1016C209.534 79.9193 210.464 79.7188 211.156 79.5C211.885 79.2448 212.633 78.9349 213.398 78.5703C214.164 78.2057 214.729 77.7682 215.094 77.2578C215.495 76.7474 215.695 76.1641 215.695 75.5078C216.133 64.0964 216.352 52.5938 216.352 41C216.352 29.1875 216.169 18.9974 215.805 10.4297C215.768 9.48177 215.349 8.67969 214.547 8.02344C213.745 7.33073 212.578 6.80208 211.047 6.4375C209.552 6.07292 208.276 5.81771 207.219 5.67188C206.198 5.48958 204.849 5.32552 203.172 5.17969C203.026 4.52344 202.953 4.06771 202.953 3.8125C202.953 3.59375 203.026 3.19271 203.172 2.60938ZM228.602 10.4297C228.128 22.8255 227.891 34.3646 227.891 45.0469C227.891 50.9531 228.091 62.2552 228.492 78.9531C230.06 79.026 232.302 79.0625 235.219 79.0625C241.125 79.0625 246.375 78.1693 250.969 76.3828C255.562 74.5599 259.336 72.026 262.289 68.7812C265.242 65.5365 267.466 61.7083 268.961 57.2969C270.492 52.849 271.258 47.9453 271.258 42.5859C271.258 39.8151 271.039 37.099 270.602 34.4375C270.164 31.776 269.471 29.0599 268.523 26.2891C267.576 23.5182 266.263 20.9661 264.586 18.6328C262.909 16.2995 260.904 14.2214 258.57 12.3984C256.273 10.5391 253.43 9.09896 250.039 8.07812C246.685 7.02083 242.966 6.49219 238.883 6.49219C235.128 6.49219 231.701 6.72917 228.602 7.20312V10.4297ZM336.227 1.78906C336.773 1.38802 337.357 1.13281 337.977 1.02344L367.891 75.7266C368.255 76.638 368.857 77.4219 369.695 78.0781C370.534 78.6979 371.573 79.1901 372.812 79.5547C374.089 79.8828 375.182 80.138 376.094 80.3203C377.042 80.4661 378.19 80.612 379.539 80.7578C379.685 81.3411 379.758 81.8333 379.758 82.2344C379.758 82.6719 379.685 83.0729 379.539 83.4375C371.664 83.1458 365.776 83 361.875 83C357.646 83 351.521 83.1458 343.5 83.4375C343.354 83 343.281 82.5625 343.281 82.125C343.281 81.651 343.354 81.1953 343.5 80.7578C350.865 79.9557 354.547 78.5703 354.547 76.6016C354.547 75.9818 354.474 75.3438 354.328 74.6875L346.398 54.3438C343.992 54.2708 340.747 54.2344 336.664 54.2344C334.732 54.2344 329.719 54.3073 321.625 54.4531L313.258 75.7266V76.3828C313.258 76.7474 313.312 77.0938 313.422 77.4219C313.568 77.75 313.786 78.0417 314.078 78.2969C314.406 78.5521 314.716 78.7708 315.008 78.9531C315.299 79.1354 315.701 79.3177 316.211 79.5C316.758 79.6458 317.214 79.7734 317.578 79.8828C317.979 79.9557 318.508 80.0469 319.164 80.1562C319.857 80.2656 320.385 80.3568 320.75 80.4297C321.115 80.4661 321.643 80.5208 322.336 80.5938C323.065 80.6667 323.576 80.7214 323.867 80.7578C324.013 81.3411 324.086 81.8333 324.086 82.2344C324.086 82.4531 324.013 82.8542 323.867 83.4375C315.701 83.1458 311.107 83 310.086 83C308.117 83 303.049 83.1458 294.883 83.4375C294.737 83 294.664 82.5625 294.664 82.125C294.664 81.651 294.737 81.1953 294.883 80.7578C302.466 79.8828 306.786 78.0234 307.844 75.1797L331.359 15.8984L330.156 12.6719C332.234 11.2865 333.674 9.79167 334.477 8.1875C335.315 6.58333 335.898 4.45052 336.227 1.78906ZM336.664 49.9688C340.018 49.9688 342.661 49.9323 344.594 49.8594L334.203 22.9531H333.984L323.539 49.75C326.966 49.8958 331.341 49.9688 336.664 49.9688ZM382.219 2.60938C390.458 2.90104 396.948 3.04688 401.688 3.04688C408.578 3.04688 414.74 2.90104 420.172 2.60938C420.318 3.19271 420.391 3.59375 420.391 3.8125C420.391 4.21354 420.318 4.66927 420.172 5.17969C415.359 5.32552 412.096 5.6901 410.383 6.27344C408.706 6.82031 407.867 7.78646 407.867 9.17188C407.867 9.20833 408.122 10.1198 408.633 11.9062L431.383 64.7344H431.93L453.258 11.1953C453.477 10.6484 453.586 9.9375 453.586 9.0625C453.586 7.85938 452.93 7.0026 451.617 6.49219C450.305 5.98177 448.044 5.54427 444.836 5.17969C444.69 4.3776 444.617 3.88542 444.617 3.70312C444.617 3.41146 444.69 3.04688 444.836 2.60938C449.539 2.82812 453.786 2.9375 457.578 2.9375C461.734 2.9375 465.891 2.82812 470.047 2.60938C470.193 3.04688 470.266 3.41146 470.266 3.70312C470.266 4.28646 470.193 4.77865 470.047 5.17969C467.312 5.4349 465.034 6 463.211 6.875C461.424 7.71354 460.039 9.15365 459.055 11.1953L429.469 84.5859H426.898L395.125 11.9062C393.448 8.07812 389.146 5.83594 382.219 5.17969C382.073 4.52344 382 4.06771 382 3.8125C382 3.44792 382.073 3.04688 382.219 2.60938ZM473.984 2.60938C482.151 2.90104 488.495 3.04688 493.016 3.04688C497.536 3.04688 503.88 2.90104 512.047 2.60938C512.193 3.19271 512.266 3.59375 512.266 3.8125C512.266 4.21354 512.193 4.66927 512.047 5.17969C510.37 5.32552 509.003 5.48958 507.945 5.67188C506.924 5.81771 505.648 6.07292 504.117 6.4375C502.622 6.80208 501.474 7.33073 500.672 8.02344C499.87 8.67969 499.451 9.48177 499.414 10.4297C498.94 22.8255 498.703 34.3646 498.703 45.0469C498.703 52.849 498.904 63.0026 499.305 75.5078C499.341 76.4557 499.76 77.276 500.562 77.9688C501.365 78.625 502.513 79.1354 504.008 79.5C505.539 79.8646 506.815 80.138 507.836 80.3203C508.893 80.4661 510.26 80.612 511.938 80.7578C512.083 81.1953 512.156 81.6875 512.156 82.2344C512.156 82.526 512.083 82.8906 511.938 83.3281C505.74 83.1094 499.396 83 492.906 83C486.344 83 480 83.1094 473.875 83.3281C473.729 82.8906 473.656 82.526 473.656 82.2344C473.656 81.6146 473.729 81.1224 473.875 80.7578C474.969 80.6484 475.844 80.5573 476.5 80.4844C477.156 80.4115 478.049 80.2839 479.18 80.1016C480.346 79.9193 481.276 79.7188 481.969 79.5C482.698 79.2448 483.445 78.9349 484.211 78.5703C484.977 78.2057 485.542 77.7682 485.906 77.2578C486.307 76.7474 486.508 76.1641 486.508 75.5078C486.945 64.0964 487.164 52.5938 487.164 41C487.164 29.1875 486.982 18.9974 486.617 10.4297C486.581 9.48177 486.161 8.67969 485.359 8.02344C484.557 7.33073 483.391 6.80208 481.859 6.4375C480.365 6.07292 479.089 5.81771 478.031 5.67188C477.01 5.48958 475.661 5.32552 473.984 5.17969C473.839 4.52344 473.766 4.06771 473.766 3.8125C473.766 3.44792 473.839 3.04688 473.984 2.60938ZM573.078 25.7422C571.693 19.0703 569.141 13.8932 565.422 10.2109C561.74 6.52865 557.31 4.6875 552.133 4.6875C547.065 4.6875 543.128 5.89062 540.32 8.29688C537.549 10.7031 536.164 13.9115 536.164 17.9219C536.164 20.1458 536.365 21.987 536.766 23.4453C537.167 24.9036 537.987 26.3255 539.227 27.7109C540.466 29.0599 542.271 30.263 544.641 31.3203C547.01 32.3411 550.109 33.3255 553.938 34.2734C556.016 34.7839 557.82 35.2578 559.352 35.6953C560.919 36.1328 562.633 36.7344 564.492 37.5C566.388 38.2656 568.01 39.0859 569.359 39.9609C570.745 40.8359 572.112 41.9297 573.461 43.2422C574.846 44.5182 575.958 45.9401 576.797 47.5078C577.672 49.0755 578.365 50.9349 578.875 53.0859C579.422 55.2005 579.695 57.5156 579.695 60.0312C579.695 63.3854 579.076 66.4844 577.836 69.3281C576.596 72.1354 574.974 74.5052 572.969 76.4375C570.964 78.3698 568.648 80.0104 566.023 81.3594C563.398 82.7083 560.737 83.6927 558.039 84.3125C555.341 84.9323 552.661 85.2422 550 85.2422C541.906 85.2422 533.284 83.1458 524.133 78.9531C524.315 75.0156 524.406 72.5911 524.406 71.6797C524.406 65.737 523.914 59.8125 522.93 53.9062C523.331 53.651 523.732 53.5234 524.133 53.5234C524.643 53.5234 525.099 53.651 525.5 53.9062C526.266 58.6094 527.523 62.7656 529.273 66.375C531.06 69.9844 533.102 72.8464 535.398 74.9609C537.695 77.0391 540.065 78.6068 542.508 79.6641C544.987 80.6849 547.484 81.1953 550 81.1953C555.724 81.1953 560.117 79.7188 563.18 76.7656C566.279 73.776 567.828 69.8385 567.828 64.9531C567.828 60.0312 566.68 56.3307 564.383 53.8516C562.122 51.3359 557.784 49.2943 551.367 47.7266C543.346 45.7214 537.076 42.7682 532.555 38.8672C528.07 34.9297 525.828 29.7344 525.828 23.2812C525.828 19.8906 526.375 16.8646 527.469 14.2031C528.599 11.5052 530.039 9.35417 531.789 7.75C533.576 6.10938 535.654 4.76042 538.023 3.70312C540.393 2.60938 542.727 1.86198 545.023 1.46094C547.357 1.02344 549.727 0.804688 552.133 0.804688C559.352 0.804688 566.862 2.48177 574.664 5.83594C574.445 7.98698 574.336 10.2292 574.336 12.5625C574.336 18.0312 574.773 22.4245 575.648 25.7422C575.174 25.9245 574.773 26.0156 574.445 26.0156C574.081 26.0156 573.625 25.9245 573.078 25.7422ZM595.062 2.60938C599.036 2.75521 603.995 2.86458 609.938 2.9375C615.88 3.01042 622.862 3.04688 630.883 3.04688C638.904 3.04688 645.885 3.01042 651.828 2.9375C657.807 2.86458 662.802 2.75521 666.812 2.60938C667.031 4.17708 667.305 5.6901 667.633 7.14844C667.961 8.57031 668.508 10.1562 669.273 11.9062L670.914 15.625L674.906 23.3906C674.651 23.974 674.013 24.4661 672.992 24.8672C671.753 22.5703 670.24 20.3828 668.453 18.3047C666.667 16.2266 664.388 14.349 661.617 12.6719C658.883 10.9948 655.529 9.59115 651.555 8.46094C647.617 7.33073 642.859 6.5651 637.281 6.16406C637.099 10.7214 636.953 15.8802 636.844 21.6406C636.771 27.3646 636.734 33.7448 636.734 40.7812C636.734 47.8542 636.771 54.2708 636.844 60.0312C636.953 65.7917 637.099 70.9505 637.281 75.5078C637.318 76.3828 637.664 77.1302 638.32 77.75C638.977 78.3333 639.87 78.8255 641 79.2266C642.167 79.6276 643.497 79.9557 644.992 80.2109C646.523 80.4297 648.164 80.612 649.914 80.7578C650.06 81.3776 650.133 81.8698 650.133 82.2344C650.133 82.5625 650.06 82.9271 649.914 83.3281C643.789 83.1094 637.445 83 630.883 83C624.357 83 618.013 83.1094 611.852 83.3281C611.706 82.9271 611.633 82.5625 611.633 82.2344C611.633 81.8698 611.706 81.3776 611.852 80.7578L614.477 80.4844C615.424 80.375 616.482 80.2292 617.648 80.0469C618.815 79.8281 619.891 79.5365 620.875 79.1719C621.896 78.8073 622.753 78.3516 623.445 77.8047C624.138 77.2578 624.484 76.5833 624.484 75.7812V75.5078C624.667 68.8359 624.812 62.6198 624.922 56.8594C625.031 51.099 625.086 45.7396 625.086 40.7812C625.086 35.8594 625.031 30.5365 624.922 24.8125C624.812 19.0521 624.667 12.8359 624.484 6.16406C619.234 6.45573 614.659 7.16667 610.758 8.29688C606.893 9.39062 603.539 10.776 600.695 12.4531C597.852 14.0938 595.482 15.9896 593.586 18.1406C591.69 20.2552 590.122 22.4974 588.883 24.8672C587.862 24.4661 587.224 23.974 586.969 23.3906L589.43 18.7422L590.578 16.3906C591.052 15.4062 591.526 14.4036 592 13.3828C592.474 12.362 592.911 11.3047 593.312 10.2109C593.75 9.08073 594.115 7.89583 594.406 6.65625C594.698 5.38021 594.917 4.03125 595.062 2.60938ZM718.711 1.78906C719.258 1.38802 719.841 1.13281 720.461 1.02344L750.375 75.7266C750.74 76.638 751.341 77.4219 752.18 78.0781C753.018 78.6979 754.057 79.1901 755.297 79.5547C756.573 79.8828 757.667 80.138 758.578 80.3203C759.526 80.4661 760.674 80.612 762.023 80.7578C762.169 81.3411 762.242 81.8333 762.242 82.2344C762.242 82.6719 762.169 83.0729 762.023 83.4375C754.148 83.1458 748.26 83 744.359 83C740.13 83 734.005 83.1458 725.984 83.4375C725.839 83 725.766 82.5625 725.766 82.125C725.766 81.651 725.839 81.1953 725.984 80.7578C733.349 79.9557 737.031 78.5703 737.031 76.6016C737.031 75.9818 736.958 75.3438 736.812 74.6875L728.883 54.3438C726.477 54.2708 723.232 54.2344 719.148 54.2344C717.216 54.2344 712.203 54.3073 704.109 54.4531L695.742 75.7266V76.3828C695.742 76.7474 695.797 77.0938 695.906 77.4219C696.052 77.75 696.271 78.0417 696.562 78.2969C696.891 78.5521 697.201 78.7708 697.492 78.9531C697.784 79.1354 698.185 79.3177 698.695 79.5C699.242 79.6458 699.698 79.7734 700.062 79.8828C700.464 79.9557 700.992 80.0469 701.648 80.1562C702.341 80.2656 702.87 80.3568 703.234 80.4297C703.599 80.4661 704.128 80.5208 704.82 80.5938C705.549 80.6667 706.06 80.7214 706.352 80.7578C706.497 81.3411 706.57 81.8333 706.57 82.2344C706.57 82.4531 706.497 82.8542 706.352 83.4375C698.185 83.1458 693.591 83 692.57 83C690.602 83 685.534 83.1458 677.367 83.4375C677.221 83 677.148 82.5625 677.148 82.125C677.148 81.651 677.221 81.1953 677.367 80.7578C684.951 79.8828 689.271 78.0234 690.328 75.1797L713.844 15.8984L712.641 12.6719C714.719 11.2865 716.159 9.79167 716.961 8.1875C717.799 6.58333 718.383 4.45052 718.711 1.78906ZM719.148 49.9688C722.503 49.9688 725.146 49.9323 727.078 49.8594L716.688 22.9531H716.469L706.023 49.75C709.451 49.8958 713.826 49.9688 719.148 49.9688Z" fill="white"/>
</svg>
