<svg width="981" height="280" viewBox="0 0 981 280" fill="none" xmlns="http://www.w3.org/2000/svg">
<path d="M130.338 6.28335C136.917 2.40605 145.083 2.40605 151.662 6.28335L201.63 35.7305L252.184 63.9099C258.916 67.6623 263.051 74.8009 262.958 82.5075L262.26 140L262.958 197.492C263.051 205.199 258.916 212.338 252.184 216.09L201.63 244.269L151.662 273.717C145.083 277.594 136.917 277.594 130.338 273.717L80.37 244.269L29.8162 216.09C23.0842 212.338 18.9487 205.199 19.0422 197.492L19.74 140L19.0422 82.5076C18.9487 74.801 23.0842 67.6623 29.8162 63.9099L80.37 35.7305L130.338 6.28335Z" fill="black"/>
<path d="M311.255 103.129H324.412L347.986 126.787L371.561 103.129H384.717V168H371.561V121.35L347.986 144.052L324.412 121.35V168H311.255V103.129ZM399.368 135.378C399.368 130.48 400.267 125.998 402.066 121.931C403.864 117.863 406.382 114.377 409.62 111.472C412.885 108.539 416.786 106.27 421.324 104.665C425.889 103.06 430.939 102.258 436.473 102.258C441.979 102.258 447.015 103.06 451.58 104.665C456.146 106.27 460.047 108.539 463.284 111.472C466.549 114.377 469.081 117.863 470.879 121.931C472.678 125.998 473.577 130.48 473.577 135.378C473.577 140.303 472.678 144.827 470.879 148.95C469.081 153.045 466.549 156.573 463.284 159.533C460.047 162.494 456.146 164.804 451.58 166.464C447.015 168.097 441.979 168.913 436.473 168.913C430.939 168.913 425.889 168.097 421.324 166.464C416.786 164.804 412.885 162.494 409.62 159.533C406.382 156.573 403.864 153.045 402.066 148.95C400.267 144.827 399.368 140.303 399.368 135.378ZM412.525 135.378C412.525 138.726 413.12 141.742 414.31 144.426C415.527 147.11 417.201 149.406 419.332 151.315C421.49 153.197 424.021 154.65 426.927 155.673C429.86 156.697 433.042 157.209 436.473 157.209C439.904 157.209 443.072 156.697 445.977 155.673C448.91 154.65 451.442 153.197 453.572 151.315C455.703 149.406 457.377 147.11 458.594 144.426C459.812 141.742 460.42 138.726 460.42 135.378C460.42 132.03 459.812 129.028 458.594 126.372C457.377 123.715 455.703 121.474 453.572 119.648C451.442 117.794 448.91 116.383 445.977 115.415C443.072 114.446 439.904 113.962 436.473 113.962C433.042 113.962 429.86 114.446 426.927 115.415C424.021 116.383 421.49 117.794 419.332 119.648C417.201 121.474 415.527 123.715 414.31 126.372C413.12 129.028 412.525 132.03 412.525 135.378ZM488.187 103.129H511.968C518.913 103.129 524.945 103.876 530.064 105.371C535.183 106.865 539.416 109.009 542.764 111.804C546.14 114.571 548.644 117.946 550.276 121.931C551.937 125.887 552.767 130.342 552.767 135.295C552.767 139.999 551.95 144.357 550.318 148.369C548.685 152.353 546.195 155.812 542.847 158.745C539.499 161.65 535.266 163.933 530.147 165.593C525.028 167.225 518.996 168.042 512.051 168.042L488.187 168V103.129ZM515.206 156.628C519.135 156.628 522.579 156.13 525.54 155.134C528.501 154.11 530.963 152.671 532.928 150.817C534.92 148.964 536.414 146.722 537.41 144.094C538.406 141.465 538.904 138.532 538.904 135.295C538.904 132.113 538.406 129.249 537.41 126.704C536.414 124.13 534.92 121.958 532.928 120.188C530.963 118.389 528.501 117.006 525.54 116.037C522.579 115.069 519.135 114.584 515.206 114.584H501.343V156.628H515.206ZM588.086 103.129H602.032L633.409 168H619.588L614.4 157.084H576.507L571.485 168H557.623L588.086 103.129ZM609.212 146.252L595.184 116.784L581.529 146.252H609.212ZM634.82 103.129H649.388L669.766 152.602L690.145 103.129H704.712L676.282 168H663.25L634.82 103.129ZM712.806 103.129H726.045V168H712.806V103.129ZM745.884 148.701C748.236 150.029 750.616 151.232 753.023 152.312C755.458 153.363 757.976 154.262 760.577 155.009C763.178 155.729 765.903 156.282 768.753 156.669C771.631 157.057 774.688 157.25 777.925 157.25C781.827 157.25 785.147 157.001 787.886 156.503C790.625 155.978 792.853 155.272 794.568 154.387C796.312 153.474 797.57 152.395 798.345 151.149C799.148 149.904 799.549 148.549 799.549 147.082C799.549 144.73 798.567 142.876 796.602 141.521C794.638 140.137 791.608 139.445 787.513 139.445C785.714 139.445 783.819 139.57 781.827 139.819C779.834 140.04 777.815 140.289 775.767 140.566C773.747 140.843 771.741 141.105 769.749 141.354C767.785 141.576 765.931 141.687 764.188 141.687C761.282 141.687 758.488 141.313 755.804 140.566C753.147 139.819 750.782 138.698 748.707 137.204C746.659 135.71 745.027 133.842 743.809 131.601C742.592 129.36 741.983 126.745 741.983 123.757C741.983 121.986 742.218 120.229 742.688 118.486C743.187 116.743 743.961 115.083 745.013 113.505C746.092 111.901 747.475 110.42 749.163 109.064C750.851 107.681 752.885 106.491 755.264 105.495C757.671 104.499 760.438 103.724 763.565 103.171C766.719 102.59 770.302 102.299 774.314 102.299C777.22 102.299 780.139 102.465 783.072 102.797C786.005 103.102 788.855 103.544 791.622 104.125C794.416 104.707 797.1 105.412 799.673 106.242C802.247 107.045 804.64 107.944 806.854 108.94L801.084 119.565C799.258 118.763 797.294 118.029 795.191 117.365C793.088 116.674 790.888 116.079 788.592 115.581C786.295 115.083 783.916 114.695 781.453 114.418C779.018 114.114 776.528 113.962 773.982 113.962C770.358 113.962 767.369 114.225 765.018 114.75C762.693 115.276 760.84 115.954 759.456 116.784C758.073 117.587 757.104 118.5 756.551 119.523C756.025 120.52 755.762 121.516 755.762 122.512C755.762 124.449 756.634 126.04 758.377 127.285C760.12 128.502 762.776 129.111 766.346 129.111C767.785 129.111 769.431 129.014 771.285 128.82C773.166 128.599 775.131 128.364 777.178 128.115C779.253 127.866 781.356 127.644 783.487 127.451C785.645 127.229 787.734 127.119 789.754 127.119C793.572 127.119 796.948 127.548 799.881 128.405C802.841 129.263 805.318 130.494 807.31 132.099C809.302 133.676 810.81 135.599 811.834 137.868C812.858 140.109 813.37 142.627 813.37 145.422C813.37 149.157 812.498 152.491 810.755 155.424C809.039 158.33 806.577 160.792 803.367 162.812C800.185 164.804 796.339 166.326 791.829 167.377C787.319 168.401 782.297 168.913 776.763 168.913C773.111 168.913 769.542 168.678 766.055 168.208C762.569 167.765 759.221 167.128 756.011 166.298C752.829 165.441 749.786 164.431 746.88 163.269C744.003 162.079 741.333 160.778 738.87 159.367L745.884 148.701ZM847.403 114.667H823.455V103.129H884.507V114.667H860.56V168H847.403V114.667ZM920.699 103.129H934.644L966.021 168H952.2L947.012 157.084H909.119L904.097 168H890.235L920.699 103.129ZM941.824 146.252L927.796 116.784L914.141 146.252H941.824Z" fill="black"/>
<path d="M59 198V78" stroke="white" stroke-width="18" stroke-linecap="round"/>
<path d="M59 78L92 140" stroke="white" stroke-width="18" stroke-linecap="round"/>
<path d="M131 52L92 141" stroke="white" stroke-width="18" stroke-linecap="round"/>
<path d="M126 231L134 49" stroke="white" stroke-width="18" stroke-linecap="round"/>
<path d="M223 79L189 218" stroke="#FF00C7" stroke-width="18" stroke-linecap="round"/>
<path d="M186 218L155 65" stroke="#FF00C7" stroke-width="18" stroke-linecap="round"/>
</svg>
