<svg width="892" height="207" viewBox="0 0 892 207" fill="none" xmlns="http://www.w3.org/2000/svg">
<path d="M93.338 6.28311C99.9172 2.40581 108.083 2.40581 114.662 6.28311L148.72 26.3542L183.141 45.5408C189.873 49.2933 194.008 56.4319 193.915 64.1385L193.44 103.262L193.915 142.386C194.008 150.092 189.873 157.231 183.141 160.984L148.72 180.17L114.662 200.241C108.083 204.119 99.9172 204.119 93.338 200.241L59.28 180.17L24.8591 160.984C18.1271 157.231 13.9916 150.092 14.0852 142.386L14.56 103.262L14.0852 64.1385C13.9916 56.4319 18.1271 49.2933 24.8591 45.5408L59.28 26.3542L93.338 6.28311Z" fill="black"/>
<path d="M236.255 69.1294H249.412L272.986 92.7866L296.561 69.1294H309.717V134H296.561V87.3496L272.986 110.052L249.412 87.3496V134H236.255V69.1294ZM324.368 101.378C324.368 96.4805 325.267 91.998 327.066 87.9307C328.864 83.8633 331.382 80.377 334.62 77.4717C337.885 74.5387 341.786 72.2699 346.324 70.665C350.889 69.0602 355.939 68.2578 361.473 68.2578C366.979 68.2578 372.015 69.0602 376.58 70.665C381.146 72.2699 385.047 74.5387 388.284 77.4717C391.549 80.377 394.081 83.8633 395.879 87.9307C397.678 91.998 398.577 96.4805 398.577 101.378C398.577 106.303 397.678 110.827 395.879 114.95C394.081 119.045 391.549 122.573 388.284 125.533C385.047 128.494 381.146 130.804 376.58 132.464C372.015 134.097 366.979 134.913 361.473 134.913C355.939 134.913 350.889 134.097 346.324 132.464C341.786 130.804 337.885 128.494 334.62 125.533C331.382 122.573 328.864 119.045 327.066 114.95C325.267 110.827 324.368 106.303 324.368 101.378ZM337.525 101.378C337.525 104.726 338.12 107.742 339.31 110.426C340.527 113.11 342.201 115.406 344.332 117.315C346.49 119.197 349.021 120.65 351.927 121.673C354.86 122.697 358.042 123.209 361.473 123.209C364.904 123.209 368.072 122.697 370.977 121.673C373.91 120.65 376.442 119.197 378.572 117.315C380.703 115.406 382.377 113.11 383.594 110.426C384.812 107.742 385.42 104.726 385.42 101.378C385.42 98.0299 384.812 95.0278 383.594 92.3716C382.377 89.7153 380.703 87.4741 378.572 85.6479C376.442 83.7941 373.91 82.383 370.977 81.4146C368.072 80.4461 364.904 79.9619 361.473 79.9619C358.042 79.9619 354.86 80.4461 351.927 81.4146C349.021 82.383 346.49 83.7941 344.332 85.6479C342.201 87.4741 340.527 89.7153 339.31 92.3716C338.12 95.0278 337.525 98.0299 337.525 101.378ZM413.187 69.1294H436.968C443.913 69.1294 449.945 69.8765 455.064 71.3706C460.183 72.8647 464.416 75.0091 467.764 77.8037C471.14 80.5706 473.644 83.9463 475.276 87.9307C476.937 91.8874 477.767 96.3421 477.767 101.295C477.767 105.999 476.95 110.357 475.318 114.369C473.685 118.353 471.195 121.812 467.847 124.745C464.499 127.65 460.266 129.933 455.147 131.593C450.028 133.225 443.996 134.042 437.051 134.042L413.187 134V69.1294ZM440.206 122.628C444.135 122.628 447.579 122.13 450.54 121.134C453.501 120.11 455.963 118.671 457.928 116.817C459.92 114.964 461.414 112.722 462.41 110.094C463.406 107.465 463.904 104.532 463.904 101.295C463.904 98.113 463.406 95.2492 462.41 92.7036C461.414 90.1304 459.92 87.9583 457.928 86.1875C455.963 84.389 453.501 83.0055 450.54 82.0371C447.579 81.0687 444.135 80.5845 440.206 80.5845H426.343V122.628H440.206ZM513.086 69.1294H527.032L558.409 134H544.588L539.4 123.084H501.507L496.485 134H482.623L513.086 69.1294ZM534.212 112.252L520.184 82.7842L506.529 112.252H534.212ZM559.82 69.1294H574.388L594.766 118.602L615.145 69.1294H629.712L601.282 134H588.25L559.82 69.1294ZM637.806 69.1294H651.045V134H637.806V69.1294ZM670.884 114.701C673.236 116.029 675.616 117.232 678.023 118.312C680.458 119.363 682.976 120.262 685.577 121.009C688.178 121.729 690.903 122.282 693.753 122.669C696.631 123.057 699.688 123.25 702.925 123.25C706.827 123.25 710.147 123.001 712.886 122.503C715.625 121.978 717.853 121.272 719.568 120.387C721.312 119.474 722.57 118.395 723.345 117.149C724.148 115.904 724.549 114.549 724.549 113.082C724.549 110.73 723.567 108.876 721.602 107.521C719.638 106.137 716.608 105.445 712.513 105.445C710.714 105.445 708.819 105.57 706.827 105.819C704.834 106.04 702.815 106.289 700.767 106.566C698.747 106.843 696.741 107.105 694.749 107.354C692.785 107.576 690.931 107.687 689.188 107.687C686.282 107.687 683.488 107.313 680.804 106.566C678.147 105.819 675.782 104.698 673.707 103.204C671.659 101.71 670.027 99.8423 668.809 97.6011C667.592 95.3599 666.983 92.7451 666.983 89.7568C666.983 87.986 667.218 86.229 667.688 84.4858C668.187 82.7427 668.961 81.0825 670.013 79.5054C671.092 77.9006 672.475 76.4202 674.163 75.0645C675.851 73.681 677.885 72.4912 680.264 71.4951C682.671 70.499 685.438 69.7243 688.565 69.1709C691.719 68.5898 695.302 68.2993 699.314 68.2993C702.22 68.2993 705.139 68.4653 708.072 68.7974C711.005 69.1017 713.855 69.5444 716.622 70.1255C719.416 70.7065 722.1 71.4121 724.673 72.2422C727.247 73.0446 729.64 73.9438 731.854 74.9399L726.084 85.5649C724.258 84.7625 722.294 84.0293 720.191 83.3652C718.088 82.6735 715.888 82.0786 713.592 81.5806C711.295 81.0825 708.916 80.6951 706.453 80.4185C704.018 80.1141 701.528 79.9619 698.982 79.9619C695.358 79.9619 692.369 80.2248 690.018 80.7505C687.693 81.2762 685.84 81.9541 684.456 82.7842C683.073 83.5866 682.104 84.4997 681.551 85.5234C681.025 86.5195 680.762 87.5156 680.762 88.5117C680.762 90.4486 681.634 92.0396 683.377 93.2847C685.12 94.5021 687.776 95.1108 691.346 95.1108C692.785 95.1108 694.431 95.014 696.285 94.8203C698.166 94.599 700.131 94.3638 702.178 94.1147C704.253 93.8657 706.356 93.6444 708.487 93.4507C710.645 93.2293 712.734 93.1187 714.754 93.1187C718.572 93.1187 721.948 93.5475 724.881 94.4053C727.841 95.263 730.318 96.4943 732.31 98.0991C734.302 99.6763 735.81 101.599 736.834 103.868C737.858 106.109 738.37 108.627 738.37 111.422C738.37 115.157 737.498 118.491 735.755 121.424C734.039 124.33 731.577 126.792 728.367 128.812C725.185 130.804 721.339 132.326 716.829 133.377C712.319 134.401 707.297 134.913 701.763 134.913C698.111 134.913 694.542 134.678 691.055 134.208C687.569 133.765 684.221 133.128 681.011 132.298C677.829 131.441 674.786 130.431 671.88 129.269C669.003 128.079 666.333 126.778 663.87 125.367L670.884 114.701ZM772.403 80.6675H748.455V69.1294H809.507V80.6675H785.56V134H772.403V80.6675ZM845.699 69.1294H859.644L891.021 134H877.2L872.012 123.084H834.119L829.097 134H815.235L845.699 69.1294ZM866.824 112.252L852.796 82.7842L839.141 112.252H866.824Z" fill="black"/>
<path d="M44 145.815V56.8154" stroke="white" stroke-width="11" stroke-linecap="round"/>
<path d="M44 56.8154L67 102.815" stroke="white" stroke-width="11" stroke-linecap="round"/>
<path d="M97 38.8154L67 104.815" stroke="white" stroke-width="11" stroke-linecap="round"/>
<path d="M93 169.815L98 36.8154" stroke="white" stroke-width="11" stroke-linecap="round"/>
<path d="M164 58.8154L139 160.815" stroke="#FF00C7" stroke-width="11" stroke-linecap="round"/>
<path d="M137 160.815L114 47.8154" stroke="#FF00C7" stroke-width="11" stroke-linecap="round"/>
</svg>
